<?xml version="1.0" encoding="UTF-8" standalone="no" ?>
<!DOCTYPE svg PUBLIC "-//W3C//DTD SVG 1.1//EN" "http://www.w3.org/Graphics/SVG/1.1/DTD/svg11.dtd">
<svg xmlns="http://www.w3.org/2000/svg" xmlns:xlink="http://www.w3.org/1999/xlink" version="1.1" width="1280" height="1024" viewBox="0 0 1280 1024" xml:space="preserve">
<desc>Created with Fabric.js 5.3.0</desc>
<defs>
</defs>
<g transform="matrix(1 0 0 1 640 512)" id="background-logo"  >
<rect style="stroke: none; stroke-width: 0; stroke-dasharray: none; stroke-linecap: butt; stroke-dashoffset: 0; stroke-linejoin: miter; stroke-miterlimit: 4; fill: rgb(255,255,255); fill-opacity: 0; fill-rule: nonzero; opacity: 1;"  paint-order="stroke"  x="-640" y="-512" rx="0" ry="0" width="1280" height="1024" />
</g>
<g transform="matrix(3.552402813513602 0 0 3.552402813513602 654.5166389882473 504.36904424548214)" id="logo-logo"  >
<g style=""  paint-order="stroke"   >
		<g transform="matrix(0.3576526194885241 0 0 0.3576526194885241 0 0)"  >
<path style="stroke: none; stroke-width: 1; stroke-dasharray: none; stroke-linecap: butt; stroke-dashoffset: 0; stroke-linejoin: miter; stroke-miterlimit: 4; fill: rgb(49,148,5); fill-rule: nonzero; opacity: 1;"  paint-order="stroke"  transform=" translate(-499.9999999999999, -499.99996955000006)" d="M 849.4538574 831.8553467 C 835.5648193 761.0640869 800.8882446 697.3416138 750.7362059999999 647.7687988 C 764.9871825999999 614.3400268 772.4940184999999 578.0980224 772.4940184999999 540.9175415 C 772.4940184999999 493.07586669999995 759.9064331 446.008606 736.0926512999999 404.8029175 C 713.0097655999999 364.8632202 679.9072874999999 331.1674805 640.3648070999999 307.3568115 C 589.8895262999999 277.0288696 549.0281372 233.47766109999998 522.1760253999998 181.40167229999997 L 500 138.3908081 L 477.8239746 181.4016724 C 450.9718628 233.4776612 410.1104736 277.0288697 359.6351929 307.3568116 C 320.0927124 331.1674805 286.99023439999996 364.8632203 263.9073487 404.8029176 C 240.093567 446.0086061 227.5059815 493.0758668 227.5059815 540.9175416 C 227.5059815 578.0810548000001 235.0121461 614.3035279000001 249.2542115 647.7176515000001 C 199.0949097 697.2976076000001 164.4370728 761.0540773000001 150.5461427 831.8553468000001 L 144.7079469 861.6091310000002 L 280.4760743 861.6091310000002 L 282.645691 861.6091310000002 L 428.2820435 861.6091310000002 L 417.64263919999996 828.9335939000001 C 401.06018069999993 778.0081178000002 373.99829109999996 732.1813966000001 337.20172119999995 692.7225954000002 C 327.5216675 682.3466188000002 318.94635009999996 671.1708986000002 311.51562499999994 659.3645632000001 C 324.78771969999997 649.0258181000002 338.98992919999995 639.6884157000002 354.05224609999993 631.5062258000002 L 354.61791989999995 631.1895144000001 C 416.8163452 595.2786255 464.7247314 546.4877319 500 482.8898926 C 535.2752686 546.487732 583.1836548 595.2786255 645.3820800999999 631.1895142 L 645.9477539 631.5062866999999 C 661.0147095 639.6909790999999 675.2280272999999 649.0238037999999 688.5018921 659.3681641 C 681.0667725 671.1742554 672.4794311999999 682.3453979999999 662.7982787999999 692.7225953 C 626.0017089999999 732.1813966 598.9398193 778.0081177999999 582.3573607999999 828.9335937999999 L 571.7179564999999 861.6091309 L 717.3543089999998 861.6091309 L 719.5239256999998 861.6091309 L 855.2920530999999 861.6091309 L 849.4538574 831.8553467 z M 357.5217285 811.7080688 L 282.6456909 811.7080688 L 280.47607419999997 811.7080688 L 206.90734859999998 811.7080688 C 220.2852783 767.4536743 243.4107666 727.2288818 274.3105468 693.6387328999999 C 282.185974 705.2590941999999 290.9905395 716.3391723999999 300.710266 726.7573242 C 324.4160156 752.1793213 343.4436035 780.6491089 357.5217285 811.7080688 z M 670.0645752 587.8184204 C 602.1444702 548.5333862 555.4268189000001 493.88415530000003 523.0447388 415.85229490000006 L 500 360.319519 L 476.9552612 415.8522949 C 444.5731811 493.8841553 397.8555298 548.5333862 329.93542479999996 587.8184204 C 315.80078119999996 595.5134277000001 302.3145752 604.0806274 289.5246582 613.4302368 C 281.5759888 590.3436279 277.4070435 565.8943481 277.4070435 540.9175415 C 277.4070435 462.14617919999995 317.76947029999997 390.815918 385.355896 350.11871339999993 C 431.2461548 322.545166 470.2885742 285.4996338 500 241.6317749 C 529.7114258 285.4996338 568.7538452 322.545166 614.644104 350.1187134 C 682.2305298 390.815918 722.5929565 462.1461792 722.5929565 540.9175415 C 722.5929565 565.9072876 718.44104 590.3773804 710.4880371 613.4762572999999 C 697.6950684 604.1100464 684.2116089 595.5201416 670.0645752 587.8184204 z M 719.5239258 811.7080688 L 717.3543091 811.7080688 L 642.4782715 811.7080688 C 656.5563965 780.6491088 675.5839844 752.1793212 699.2897339 726.7573242 C 709.0102539 716.3382568 717.8158569 705.2568358999999 725.696167 693.6375732 C 756.5964965999999 727.2259521 779.7150269 767.4546508000001 793.0926513999999 811.7080688 L 719.5239258 811.7080688 z" stroke-linecap="round" />
</g>
		<g transform="matrix(0.3576526194885241 0 0 0.3576526194885241 -86.36762840411319 32.774796334431784)"  >
<linearGradient id="SVGID_334200" gradientUnits="userSpaceOnUse" gradientTransform="matrix(1 0 0 1 227.50598150000002 540.9175415)"  x1="31.00933839999999" y1="0" x2="31.00933840000002" y2="106.80010990000005">
<stop offset="0%" style="stop-color:rgb(49,148,5);stop-opacity: 1"/>
<stop offset="100%" style="stop-color:rgb(27,121,2);stop-opacity: 1"/>
</linearGradient>
<path style="stroke: none; stroke-width: 1; stroke-dasharray: none; stroke-linecap: butt; stroke-dashoffset: 0; stroke-linejoin: miter; stroke-miterlimit: 4; fill: url(#SVGID_334200); fill-rule: nonzero; opacity: 1;"  paint-order="stroke"  transform=" translate(-258.5153199, -594.31759645)" d="M 277.4070435 540.9175415 L 227.5059815 540.9175415 C 227.5059815 578.0810547 235.0121461 614.3035278 249.2542115 647.7176514 C 261.7436524 635.3724976 275.1933594 623.9066162 289.5246583 613.4302368 C 281.5759888 590.3436279 277.4070435 565.8943481 277.4070435 540.9175415 z" stroke-linecap="round" />
</g>
		<g transform="matrix(0.3576526194885241 0 0 0.3576526194885241 -63.37787129542107 73.97334817381335)"  >
<linearGradient id="SVGID_334201" gradientUnits="userSpaceOnUse" gradientTransform="matrix(1 0 0 1 274.31054689999996 659.3645630000001)"  x1="48.48434445000001" y1="0" x2="48.48434445000001" y2="100.28912349999996">
<stop offset="19.000000000000007%" style="stop-color:rgb(27,121,2);stop-opacity: 1"/>
<stop offset="70%" style="stop-color:rgb(49,148,5);stop-opacity: 1"/>
</linearGradient>
<path style="stroke: none; stroke-width: 1; stroke-dasharray: none; stroke-linecap: butt; stroke-dashoffset: 0; stroke-linejoin: miter; stroke-miterlimit: 4; fill: url(#SVGID_334201); fill-rule: nonzero; opacity: 1;"  paint-order="stroke"  transform=" translate(-322.79489134999994, -709.5091247500001)" d="M 327.5578003 759.6536865 L 371.2792358 735.0830688000001 C 361.059082 720.2634887 349.69750969999996 706.1224975000001 337.20172119999995 692.7225952000001 C 327.5216675 682.3466186000002 318.94635009999996 671.1708984000002 311.51562499999994 659.3645630000001 C 298.12017819999994 669.7993775000001 285.68963619999994 681.2689209000001 274.31054689999996 693.6387329 C 282.18597409999995 705.2590942 290.9905396 716.3391724 300.71026609999996 726.7573242000001 C 310.4619141 737.2149658 319.4083252 748.1964722 327.5578003 759.6536865 z" stroke-linecap="round" />
</g>
		<g transform="matrix(0.3576526194885241 0 0 0.3576526194885241 86.36762840411319 32.774796334431784)"  >
<linearGradient id="SVGID_334202" gradientUnits="userSpaceOnUse" gradientTransform="matrix(1 0 0 1 710.4753417 540.9175415)"  x1="31.009338400000047" y1="0" x2="31.009338400000047" y2="106.80010990000005">
<stop offset="0%" style="stop-color:rgb(49,148,5);stop-opacity: 1"/>
<stop offset="100%" style="stop-color:rgb(27,121,2);stop-opacity: 1"/>
</linearGradient>
<path style="stroke: none; stroke-width: 1; stroke-dasharray: none; stroke-linecap: butt; stroke-dashoffset: 0; stroke-linejoin: miter; stroke-miterlimit: 4; fill: url(#SVGID_334202); fill-rule: nonzero; opacity: 1;"  paint-order="stroke"  transform=" translate(-741.4846801, -594.31759645)" d="M 722.5929565 540.9175415 L 772.4940185 540.9175415 C 772.4940185 578.0810547 764.9878539 614.3035278 750.7457885 647.7176514 C 738.2563476 635.3724976 724.8066406 623.9066162 710.4753417 613.4302368 C 718.4240112 590.3436279 722.5929565 565.8943481 722.5929565 540.9175415 z" stroke-linecap="round" />
</g>
		<g transform="matrix(0.3576526194885241 0 0 0.3576526194885241 63.3778712954209 73.97334817381335)"  >
<linearGradient id="SVGID_334203" gradientUnits="userSpaceOnUse" gradientTransform="matrix(1 0 0 1 628.7207642 659.3645630000001)"  x1="48.48434444999998" y1="0" x2="48.48434444999998" y2="100.28912349999996">
<stop offset="19.000000000000007%" style="stop-color:rgb(27,121,2);stop-opacity: 1"/>
<stop offset="70%" style="stop-color:rgb(49,148,5);stop-opacity: 1"/>
</linearGradient>
<path style="stroke: none; stroke-width: 1; stroke-dasharray: none; stroke-linecap: butt; stroke-dashoffset: 0; stroke-linejoin: miter; stroke-miterlimit: 4; fill: url(#SVGID_334203); fill-rule: nonzero; opacity: 1;"  paint-order="stroke"  transform=" translate(-677.2051086499999, -709.5091247500001)" d="M 672.4421997 759.6536865 L 628.7207642 735.0830688000001 C 638.940918 720.2634887 650.3024902999999 706.1224975000001 662.7982787999999 692.7225952000001 C 672.4783325 682.3466186000002 681.0536499 671.1708984000002 688.4843749999999 659.3645630000001 C 701.8798217999998 669.7993775000001 714.3103637999999 681.2689209000001 725.6894530999999 693.6387329 C 717.8140258999999 705.2590942 709.0094604 716.3391724 699.2897338999999 726.7573242000001 C 689.5380859 737.2149658 680.5916748 748.1964722 672.4421997 759.6536865 z" stroke-linecap="round" />
</g>
</g>
</g>
</svg>